<svg width="80" height="80" viewBox="0 0 80 80" fill="none" xmlns="http://www.w3.org/2000/svg">
<path d="M70.7426 62.4427V64.5992C70.0932 65.7935 68.8181 66.6051 67.3688 66.6051H13.5715C11.4614 66.6051 9.73389 64.8775 9.73389 62.7674V62.4427H70.7426Z" fill="#DAE8F0"/>
<path d="M48.4316 4.05446V13.6877C48.4316 15.8098 50.0515 17.5301 52.0498 17.5301H61.1207L48.4316 4.05446Z" fill="#23825A"/>
<path d="M66.9002 24.1755H62.2863V17.54C62.2863 17.3336 62.1764 16.9605 61.9648 16.7355L49.2757 3.25951C49.2697 3.25328 49.2618 3.25009 49.2559 3.24401C49.2526 3.24075 49.2484 3.23884 49.2451 3.23552C49.0404 3.03327 48.7385 2.91276 48.4554 2.90653C48.448 2.90639 48.4418 2.90229 48.4344 2.90229C48.5998 2.90231 22.7878 2.9023 22.489 2.90229C19.8554 2.90229 17.7132 5.14527 17.7132 7.90286V24.1755H13.0993C10.3411 24.1755 8.09814 26.4185 8.09814 29.1761L8.09814 62.7596C8.09814 65.4874 10.3241 67.7647 13.0959 67.7647H33.955L31.0682 74.779H22.4188C21.778 74.779 21.2594 75.2981 21.2594 75.9384C21.2594 76.5787 21.778 77.0978 22.4188 77.0978H57.5773C58.2182 77.0978 58.7367 76.5787 58.7367 75.9384C58.7367 75.2981 58.2182 74.779 57.5773 74.779H48.9268L46.04 67.7647H66.9048C69.7188 67.7647 71.9014 65.4168 71.9014 62.7596V62.7557C71.9014 54.2359 71.9014 37.7482 71.9014 29.1761C71.9014 26.4185 69.6584 24.1755 66.9002 24.1755ZM66.9002 26.4943C68.3789 26.4943 69.5825 27.6974 69.5825 29.1761V57.121H62.2863V26.4943H66.9002ZM69.5825 62.7557C69.5825 64.1825 68.4112 65.4414 66.9002 65.4414H13.0993C11.6223 65.4414 10.4181 64.2389 10.4181 62.7557V59.4399C110.799 59.4466 22.8546 59.4409 69.5825 59.4399V62.7557ZM52.0497 16.3709C50.7018 16.3709 49.5939 15.1776 49.5939 13.6988V6.98029L58.4356 16.3709H52.0497V16.3709ZM22.489 5.22112L47.2716 5.22112V13.6875C47.2716 16.4214 49.3895 18.6994 52.052 18.6994H59.9675V57.121H20.032V7.90285C20.032 6.42413 21.1337 5.22112 22.489 5.22112ZM13.0993 26.4943H17.7132V57.121H10.417L10.417 29.1761C10.417 27.6974 11.6206 26.4943 13.0993 26.4943ZM46.419 74.779H33.576L36.4626 67.7647H43.5324L46.419 74.779Z" fill="#626975"/>
<path d="M38.2925 38.1158L35.6715 40.7368L34.898 39.9636C34.4451 39.5107 33.7114 39.5107 33.2585 39.9636L25.7484 47.4738C24.4273 48.7925 24.4045 50.9597 25.7484 52.3011C27.0687 53.6227 29.2325 53.6533 30.5796 52.3062L38.091 44.7949C38.3084 44.5775 38.4306 44.2826 38.4306 43.9752C38.4306 43.6678 38.3084 43.3728 38.091 43.1554L37.3113 42.376L39.932 39.7553C40.3849 39.3024 40.3849 38.5687 39.932 38.1158C39.4791 37.6629 38.7454 37.6629 38.2925 38.1158ZM28.9402 50.6662C28.5122 51.0941 27.8182 51.0919 27.3867 50.6605C26.9526 50.2263 26.9715 49.5302 27.3879 49.1139L34.0783 42.4228L35.6317 43.9752L28.9402 50.6662Z" fill="#626975"/>
<path d="M24.5915 10.7934H42.986C43.6269 10.7934 44.1454 10.2743 44.1454 9.63403C44.1454 8.99374 43.6269 8.47461 42.986 8.47461H24.5915C23.9507 8.47461 23.4321 8.99374 23.4321 9.63403C23.4321 10.2743 23.9507 10.7934 24.5915 10.7934Z" fill="#626975"/>
<path d="M24.5915 17.9594H42.986C43.6269 17.9594 44.1454 17.4403 44.1454 16.8C44.1454 16.1597 43.6269 15.6406 42.986 15.6406H24.5915C23.9507 15.6406 23.4321 16.1597 23.4321 16.8C23.4321 17.4403 23.9507 17.9594 24.5915 17.9594Z" fill="#626975"/>
<path d="M52.0905 37.8941L52.0904 37.8942C48.8035 41.1812 43.4611 41.1714 40.1742 37.8845L40.1737 37.8841L40.1694 37.8797C40.1692 37.8795 40.1691 37.8794 40.1689 37.8792C39.9938 37.7041 39.8532 37.5548 39.7168 37.395L39.7156 37.3935C36.888 34.0892 37.0368 29.0959 40.1549 25.9682C43.4592 22.6735 48.8013 22.6795 52.0899 25.9676C55.2114 29.0983 55.3738 34.0824 52.5396 37.3932L52.5247 37.4105L52.5105 37.4283C52.3868 37.582 52.244 37.7406 52.0905 37.8941Z" stroke="#23825A" stroke-width="3"/>
</svg>
